<svg xmlns="http://www.w3.org/2000/svg" viewBox="0 0 512 512">
  <defs>
    <radialGradient id="g" cx="50%" cy="42%" r="60%">
      <stop offset="0%" stop-color="#1c6b4e"/>
      <stop offset="70%" stop-color="#0d3b2e"/>
      <stop offset="100%" stop-color="#0a2c22"/>
    </radialGradient>
  </defs>
  <circle cx="256" cy="256" r="248" fill="url(#g)"/>
  <circle cx="256" cy="256" r="248" fill="none" stroke="#e9b949" stroke-width="14" stroke-dasharray="46 30"/>
  <circle cx="256" cy="256" r="186" fill="none" stroke="#e9b949" stroke-width="8" opacity="0.7"/>
  <path fill="#fbfbf7" d="M256 120c-40 60-104 96-104 156 0 38 30 64 66 64 12 0 22-3 30-9-6 26-18 40-34 49v8h84v-8c-16-9-28-23-34-49 8 6 18 9 30 9 36 0 66-26 66-64 0-60-64-96-104-156z"/>
</svg>
